# xmcd
#
# Track frame offsets:
#  150
#  13960
#  34328
#  53405
#  71509
#  90777
#  105600
#  130028
#  143429
#  161858
#  179101
#  193418
#  213228
#  230682
#
# Disc length: 3377 seconds
#
# Revision: 2
# Processed by: cddbd v1.5.1PL2 Copyright (c) Steve Scherf et al.
# Submitted via: Collectorz.com_Music_Collector 6.10
#
DISCID=c30d2f0e
DTITLE=Various Artist - Blue Highways 6 - The Ultimate American Music Fest 2005
DYEAR=2005
DGENRE=Alternative Country
TTITLE0=Tom Russell - Tonight We Ride
TTITLE1=Chuck Prophet - You Did (Bomp Shooby Dooby Bomp)
TTITLE2=Kelly Willis - Easy (As Falling Apart)
TTITLE3=Tres Chicas - Sweetwater
TTITLE4=Jim Lauderdale - Looking Elsewhere
TTITLE5=Caroline Herring - Trace
TTITLE6=Eliza Gilkinson - Dark Side Of Town
TTITLE7=Son Volt - Driving The View
TTITLE8=Lori McKenna - Mr. Sunshine
TTITLE9=Bernie Leadon - Rich Life
TTITLE10=DB Harris and His Men Of Action - Girls Gone Wild
TTITLE11=Nathan Hamilton and No Deal - Two Penny Vengeance
TTITLE12=Bill Kirchen - Truck Stop At The End Of The World
TTITLE13=Two Cow Garage - Burn In Hell
EXTD=
EXTT0=
EXTT1=
EXTT2=
EXTT3=
EXTT4=
EXTT5=
EXTT6=
EXTT7=
EXTT8=
EXTT9=
EXTT10=
EXTT11=
EXTT12=
EXTT13=
PLAYORDER=
